<?xml version="1.0" encoding="UTF-8"?>
<!DOCTYPE svg PUBLIC "-//W3C//DTD SVG 1.1//EN" "http://www.w3.org/Graphics/SVG/1.1/DTD/svg11.dtd">
<!-- Creator: CorelDRAW -->
<svg xmlns="http://www.w3.org/2000/svg" xml:space="preserve" width="42px" height="42px" style="shape-rendering:geometricPrecision; text-rendering:geometricPrecision; image-rendering:optimizeQuality; fill-rule:evenodd; clip-rule:evenodd"
viewBox="0 0 42 42"
 xmlns:xlink="http://www.w3.org/1999/xlink">
 <defs>
  <style type="text/css">
   <![CDATA[
    .fil0 {fill:#1F1A17}
   ]]>
  </style>
 </defs>
 <g id="Слой_x0020_1">
  <metadata id="CorelCorpID_0Corel-Layer"/>
  <g id="_109377784">
   <path id="_110726640" class="fil0" d="M17.9173 17.4719l0.664324 -3.3214 -5.24377 -1.89304 1.27542 2.23194 3.3327 1.15189 -0.0286759 1.83062zm-0.210434 1.67674l3.29476 0.823707 0.0118034 0 3.29476 -0.823707 -0.0797276 0.929938 -2.57735 1.67399 -0.0265759 2.12571 5.14189 2.95948 -5.75885 -2.09681 -5.46072 2.00753 4.84369 -2.87019 -0.0265759 -2.12571 -2.57742 -1.67399 -0.0796552 -0.929938zm6.55026 -1.6044l-1.05022 -3.68326 5.38759 -1.50679 -1.19512 2.12585 -3.31561 1.02422 0.173359 2.03997z"/>
   <path id="_110726568" class="fil0" d="M29.3345 5.52133c0.813424,1.1101 2.72232,0.965638 4.34541,0.965638l0.120714 0c0.6783,0 1.25833,2.74441 1.81056,3.37977 0,-1.08092 -0.323617,-5.31104 -2.1727,-5.31104 -0.638255,0 -3.36652,0.793872 -4.10398,0.965638z"/>
   <path id="_110726496" class="fil0" d="M12.2784 5.52126c-0.813352,1.1101 -2.72232,0.965638 -4.34541,0.965638l-0.120714 0c-0.6783,0 -1.25833,2.74441 -1.81056,3.3797 0,-1.08085 0.323617,-5.31097 2.1727,-5.31097 0.638255,0 3.36652,0.7938 4.10398,0.965638z"/>
   <path id="_110726424" class="fil0" d="M20.951 4.67207l-0.0123103 1.83033c-9.74103,0.458017 -15.3246,8.46626 -17.3904,11.2685 1.67015,-7.86892 7.3261,-12.8874 17.4027,-13.0989z"/>
   <path id="_110726352" class="fil0" d="M20.938 4.67207l0.0122379 1.83033c9.74103,0.458017 15.3246,8.46626 17.3905,11.2685 -1.67015,-7.86892 -7.3261,-12.8874 -17.4027,-13.0989z"/>
   <polygon id="_111015152" class="fil0" points="20.9387,6.50232 20.9384,6.50218 20.938,6.50232 20.938,6.50211 7.8695,2.07987 20.9056,1.83851 20.9384,6.45641 20.9711,1.83851 34.0073,2.07987 20.9387,6.50211 "/>
   <polygon id="_110726136" class="fil0" points="27.3217,0.160759 20.9387,6.5024 14.3875,0.148593 20.9056,1.83844 "/>
   <polygon id="_110726064" class="fil0" points="10.0203,29.8669 11.8693,24.3739 16.7944,33.3196 17.1259,35.3425 17.4988,39.0792 11.7375,31.2268 "/>
   <path id="_110725992" class="fil0" d="M6.51065 24.3389l0.217024 -2.12114 2.64839 -3.63655c0.8316,9.31198 2.05221,11.903 4.52861,18.6239 -4.78496,-3.41004 -7.14362,-8.29109 -7.39403,-12.8662z"/>
   <path id="_110725920" class="fil0" d="M5.61424 15.2462c2.09515,-3.3298 4.91523,-4.68365 7.95219,-5.25992 -5.72149,5.17339 -7.05875,10.4816 -7.12631,20.3578 -3.47941,-6.86801 -1.90412,-11.7441 -0.825879,-15.0978z"/>
   <polygon id="_110725848" class="fil0" points="17.0265,35.3043 20.9147,41.6311 20.9147,35.6886 16.3188,29.8421 16.7944,33.3196 "/>
   <polygon id="_110725776" class="fil0" points="24.8029,35.3043 20.9147,41.6311 20.9147,35.6886 25.5106,29.8421 25.0453,33.3196 "/>
   <polygon id="_110725704" class="fil0" points="31.8193,29.8669 29.9703,24.3739 25.0453,33.3196 24.3408,39.0792 30.1021,31.2268 "/>
   <path id="_110725632" class="fil0" d="M35.3048 24.3389l-0.216952 -2.12114 -2.64846 -3.63655c-0.8316,9.31198 -2.05221,11.903 -4.52861,18.6239 4.78496,-3.41004 7.14362,-8.29109 7.39403,-12.8662z"/>
   <path id="_110725560" class="fil0" d="M36.2907 15.1029c-2.11506,-3.36138 -4.96194,-4.72811 -8.02772,-5.30981 5.77587,5.22241 7.12581,10.581 7.19395,20.551 3.51243,-6.93319 1.92215,-11.8555 0.833772,-15.2411z"/>
  </g>
 </g>
</svg>
