<?xml version="1.0" encoding="UTF-8"?>
<!DOCTYPE svg PUBLIC "-//W3C//DTD SVG 1.1//EN" "http://www.w3.org/Graphics/SVG/1.1/DTD/svg11.dtd">
<!-- Creator: CorelDRAW -->
<svg xmlns="http://www.w3.org/2000/svg" xml:space="preserve" width="1000px" height="1000px" style="shape-rendering:geometricPrecision; text-rendering:geometricPrecision; image-rendering:optimizeQuality; fill-rule:evenodd; clip-rule:evenodd"
viewBox="0 0 1000 1000"
 xmlns:xlink="http://www.w3.org/1999/xlink">
 <defs>
  <style type="text/css">
   <![CDATA[
    .fil0 {fill:limegreen}
   ]]>
  </style>
 </defs>
 <g id="Слой_x0020_1">
  <metadata id="CorelCorpID_0Corel-Layer"/>
  <g id="_137141712">
   <path id="_137142384" class="fil0" d="M873.792 733.895c-28.4286,-22.8867 -58.8081,-43.4286 -88.7124,-64.4133 -59.6405,-41.8881 -114.191,-45.1438 -158.694,22.2481 -24.9914,37.8352 -59.9762,39.4924 -96.5576,22.8938 -100.846,-45.7267 -178.719,-116.181 -224.333,-218.682 -20.1786,-45.349 -19.9129,-86.0067 27.2986,-118.08 24.9957,-16.9624 50.1781,-37.0338 48.1643,-74.0976 -2.62905,-48.3276 -119.969,-209.832 -166.306,-226.878 -19.1743,-7.05476 -38.2686,-6.59571 -57.7762,-0.04 -108.653,36.5395 -153.658,125.898 -110.557,231.703 128.58,315.663 354.86,535.417 666.346,669.544 17.759,7.63714 37.4881,10.6905 47.4767,13.431 70.9162,0.713333 153.991,-67.611 177.982,-135.418 23.0986,-65.2338 -25.7181,-91.1267 -64.3319,-122.21l0 0zm-349.254 -624.647c227.718,35.0176 332.737,143.298 361.735,372.654 2.68952,21.1852 -5.2019,53.0633 25.0238,53.6505 31.5895,0.60381 23.9776,-30.8038 24.2433,-52.01 2.67095,-216.01 -185.678,-416.262 -404.418,-423.645 -16.5033,2.37524 -50.6514,-11.3805 -52.7814,25.609 -1.41952,24.9371 27.331,20.84 46.1971,23.7419l0 0z"/>
   <path id="_137142504" class="fil0" d="M569.081 172.135c-21.9033,-2.6381 -50.819,-12.9581 -55.9371,17.4333 -5.34429,31.899 26.8833,28.6595 47.591,33.2948 140.643,31.4333 189.614,82.6229 212.771,222.133 3.38143,20.3395 -3.33762,51.9962 31.2276,46.75 25.6157,-3.90143 16.3633,-31.0371 18.5052,-46.8876 1.13524,-133.94 -113.636,-255.85 -254.159,-272.724l0.00047619 0z"/>
   <path id="_137142600" class="fil0" d="M581.995 281.66c-14.62,0.360952 -28.9695,1.94381 -34.3438,17.5681 -8.07095,23.3529 8.90762,28.9205 26.189,31.6962 57.6943,9.2619 88.0576,43.2819 93.8214,100.816 1.55667,15.6152 11.4667,28.2681 26.55,26.4876 20.9033,-2.49381 22.7938,-21.0995 22.1529,-38.7676 1.03238,-64.6371 -72.0257,-139.347 -134.37,-137.8l0 0z"/>
  </g>
 </g>
</svg>
