<?xml version="1.0" encoding="UTF-8"?>
<!DOCTYPE svg PUBLIC "-//W3C//DTD SVG 1.1//EN" "http://www.w3.org/Graphics/SVG/1.1/DTD/svg11.dtd">
<!-- Creator: CorelDRAW -->
<svg xmlns="http://www.w3.org/2000/svg" xml:space="preserve" width="2400px" height="2400px" style="shape-rendering:geometricPrecision; text-rendering:geometricPrecision; image-rendering:optimizeQuality; fill-rule:evenodd; clip-rule:evenodd"
viewBox="0 0 2400 2400"
 xmlns:xlink="http://www.w3.org/1999/xlink"
 xmlns:dc="http://purl.org/dc/elements/1.1/"
 xmlns:cc="http://creativecommons.org/ns#"
 xmlns:rdf="http://www.w3.org/1999/02/22-rdf-syntax-ns#"
 xmlns:svg="http://www.w3.org/2000/svg"
 xmlns:sodipodi="http://sodipodi.sourceforge.net/DTD/sodipodi-0.dtd"
 xmlns:inkscape="http://www.inkscape.org/namespaces/inkscape"
 version="1.1"
 sodipodi:docname="kachestvo.svg"
 inkscape:version="0.92.3 (2405546, 2018-03-11)">
 <defs>
  <style type="text/css">
   <![CDATA[
    .fil3 {fill:#CDCFD0}
    .fil4 {fill:#D7B354}
    .fil1 {fill:#E4E7E7}
    .fil2 {fill:#FFE680}
    .fil0 {fill:#DA251D;fill-opacity:0.968627}
   ]]>
  </style>
 </defs>
 <g id="Слой_x0020_1">
  <metadata id="CorelCorpID_0Corel-Layer"/>
  <sodipodi:namedview pagecolor="#ffffff" bordercolor="#666666" borderopacity="1" objecttolerance="10" gridtolerance="10" guidetolerance="10" inkscape:pageopacity="0" inkscape:pageshadow="2" inkscape:window-width="1920" inkscape:window-height="977" id="namedview1715" showgrid="false" inkscape:zoom="0.4609375" inkscape:cx="256" inkscape:cy="256" inkscape:window-x="-4" inkscape:window-y="-4" inkscape:window-maximized="1" inkscape:current-layer="Layer_1"/>
  <sodipodi:namedview pagecolor="#ffffff" bordercolor="#666666" borderopacity="1" objecttolerance="10" gridtolerance="10" guidetolerance="10" inkscape:pageopacity="0" inkscape:pageshadow="2" inkscape:window-width="1920" inkscape:window-height="977" id="namedview1715" showgrid="false" inkscape:zoom="0.4609375" inkscape:cx="256" inkscape:cy="256" inkscape:window-x="-4" inkscape:window-y="-4" inkscape:window-maximized="1" inkscape:current-layer="Layer_1"/>
  <path id="path1670" class="fil0" d="M1203 18.7063c-650.165,0 -1177.23,527.07 -1177.23,1177.23 0,650.141 527.07,1177.23 1177.23,1177.23 650.165,0 1177.23,-527.094 1177.23,-1177.23 0,-650.165 -527.07,-1177.23 -1177.23,-1177.23z"/>
  <path id="path1672" class="fil1" d="M732.105 2137.68l941.787 0c38.9909,0 70.6343,31.6423 70.6343,70.6343l0 94.1783c0,39.0366 -31.6434,70.6343 -70.6343,70.6343l-941.787 0c-39.0149,0 -70.6343,-31.5977 -70.6343,-70.6343l0 -94.1783c0,-38.992 31.6194,-70.6343 70.6343,-70.6343z"/>
  <path id="path1674" class="fil2" d="M1838.71 795.657l-141.267 0 0 -23.544c0,-65.0286 -52.696,-117.723 -117.723,-117.723l-753.431 0c-65.0057,0 -117.723,52.6949 -117.723,117.723l0 23.544 -141.267 0c-39.0149,0 -70.6343,31.6434 -70.6343,70.6583l0 211.902c0,46.1703 28.5623,99.1966 70.6343,141.222l150.662 115.888c40.0034,206.229 206.274,366.354 414.41,396.448l0 217.554 -47.0891 0c-39.0149,0 -70.6343,31.6423 -70.6343,70.6343l0 23.544 -23.544 0c-39.0149,0 -70.6343,31.6434 -70.6343,70.6343l0 23.5451 565.072 0 0 -23.5451c0,-38.9909 -31.6423,-70.6343 -70.6343,-70.6343l-23.544 0 0 -23.544c0,-38.992 -31.6434,-70.6343 -70.6343,-70.6343l-47.0891 0 0 -217.554c208.136,-30.0651 374.384,-190.219 414.432,-396.448l150.64 -115.888c42.0503,-42.0251 70.6343,-95.0469 70.6343,-141.222l0 -211.902c0,-39.0377 -31.6434,-70.6583 -70.6343,-70.6583l0 0zm-1271.41 282.56l0 -211.902 141.267 0 0 372.714 -94.3211 -72.5657c-32.3966,-33.5749 -46.9463,-68.28 -46.9463,-88.2469zm1271.41 0c0,19.9669 -14.5269,54.672 -46.9463,88.2469l-94.3211 72.5657 0 -372.714 141.267 0 0 211.902z"/>
  <path id="path1676" class="fil0" d="M1367.81 992.867l-81.1611 85.3486c0,0 -82.4057,-94.2011 -84.0286,-94.2011 -1.38971,0 -82.7829,94.2011 -82.7829,94.2011l-81.6537 -83.1589c-11.56,-15.1383 -23.544,-13.752 -23.544,-0.754286l23.5429 201.638c0,12.9737 10.5509,23.52 23.5463,23.52l282.535 0c13.0183,0 23.5463,-10.5246 23.5463,-23.52l23.5429 -200.13c0,-21.2149 -14.7383,-10.9486 -23.5429,-2.94286l0 0zm-23.5463 273.661l-282.535 0c-12.9954,0 -23.5463,10.5269 -23.5463,23.5451 0,13.0194 10.5509,23.5451 23.5463,23.5451l282.535 0c13.0183,0 23.5463,-10.5257 23.5463,-23.5451 0,-13.0183 -10.528,-23.5451 -23.5463,-23.5451z"/>
  <path id="path1678" class="fil3" d="M1673.89 2326.04l-941.787 0c-39.0149,0 -70.6343,-31.5977 -70.6343,-70.6343l0 47.0891c0,39.0366 31.6194,70.6343 70.6343,70.6343l941.787 0c38.9909,0 70.6343,-31.5977 70.6343,-70.6343l0 -47.0891c0,39.0366 -31.6434,70.6343 -70.6343,70.6343z"/>
  <g id="g1682">
   <path id="path1680" class="fil4" d="M924.794 2090.59c-2.61143,7.39314 -4.33143,15.2343 -4.33143,23.544l0 23.5451 565.072 0 0 -23.5451c0,-8.30971 -1.696,-16.1509 -4.33257,-23.544l-556.408 0 0 0zm89.8469 -70.6343l0 23.544 376.715 0 0 -23.544c0,-8.31086 -1.69714,-16.1509 -4.33257,-23.5451l-368.05 0c-2.63657,7.38971 -4.33257,15.2583 -4.33257,23.5451l0 0zm117.816 -288.189l-0.0925714 0 0 70.6343c23.1223,3.34286 46.5931,5.65143 70.6343,5.65143 24.0411,0 47.512,-2.33029 70.6343,-5.65143l0 -70.6343c-14.7394,2.12 -29.6891,3.53143 -44.7589,4.49714l9.44114 -0.634286c-256.517,-18.3166 -459.121,-233.235 -459.121,-496.37l0 -467.15c0,-65.0286 52.7177,-117.723 117.723,-117.723l-70.6343 0c-65.0057,0 -117.723,52.6949 -117.723,117.723l0 23.544 -47.0891 0 0 70.6583 47.0891 0 0 372.714 -47.0891 -36.2366 0 89.0937 56.4834 43.4377c40.0263,206.254 206.349,366.405 414.503,396.446l0 0zm31.2926 3.65143c12.9954,1.03543 25.9909,2.00114 39.2491,2.00114 -13.2583,0 -26.3223,-0.801143 -39.2491,-2.00114zm533.688 -939.765l47.0891 0 0 70.6583 -47.0891 0 0 -70.6583zm0 443.607c0,32.8709 -3.36686,64.9817 -9.37257,96.064l56.4617 -43.4377 0 -89.0983 -47.0891 36.2366 0 0.235429 0 0z"/>
  </g>
  <g id="g1684">
  </g>
  <g id="g1686">
  </g>
  <g id="g1688">
  </g>
  <g id="g1690">
  </g>
  <g id="g1692">
  </g>
  <g id="g1694">
  </g>
  <g id="g1696">
  </g>
  <g id="g1698">
  </g>
  <g id="g1700">
  </g>
  <g id="g1702">
  </g>
  <g id="g1704">
  </g>
  <g id="g1706">
  </g>
  <g id="g1708">
  </g>
  <g id="g1710">
  </g>
  <g id="g1712">
  </g>
 </g>
</svg>
