<?xml version="1.0" encoding="UTF-8"?>
<!DOCTYPE svg PUBLIC "-//W3C//DTD SVG 1.1//EN" "http://www.w3.org/Graphics/SVG/1.1/DTD/svg11.dtd">
<!-- Creator: CorelDRAW -->
<svg xmlns="http://www.w3.org/2000/svg" xml:space="preserve" width="50px" height="50px" style="shape-rendering:geometricPrecision; text-rendering:geometricPrecision; image-rendering:optimizeQuality; fill-rule:evenodd; clip-rule:evenodd"
viewBox="0 0 50 50"
 xmlns:xlink="http://www.w3.org/1999/xlink"
 xmlns:dc="http://purl.org/dc/elements/1.1/"
 xmlns:cc="http://creativecommons.org/ns#"
 xmlns:rdf="http://www.w3.org/1999/02/22-rdf-syntax-ns#"
 xmlns:svg="http://www.w3.org/2000/svg"
 xmlns:sodipodi="http://sodipodi.sourceforge.net/DTD/sodipodi-0.dtd"
 xmlns:inkscape="http://www.inkscape.org/namespaces/inkscape"
 version="1.1"
 sodipodi:docname="kachestvo.svg"
 inkscape:version="0.92.3 (2405546, 2018-03-11)">
 <defs>
  <style type="text/css">
   <![CDATA[
    .str0 {stroke:#ADBCCB;stroke-width:0.922571;stroke-linecap:round}
    .fil1 {fill:none}
    .fil0 {fill:#ADBCCB}
   ]]>
  </style>
 </defs>
 <g id="Слой_x0020_1">
  <metadata id="CorelCorpID_0Corel-Layer"/>
  <sodipodi:namedview pagecolor="#ffffff" bordercolor="#666666" borderopacity="1" objecttolerance="10" gridtolerance="10" guidetolerance="10" inkscape:pageopacity="0" inkscape:pageshadow="2" inkscape:window-width="1920" inkscape:window-height="977" id="namedview1715" showgrid="false" inkscape:zoom="0.4609375" inkscape:cx="256" inkscape:cy="256" inkscape:window-x="-4" inkscape:window-y="-4" inkscape:window-maximized="1" inkscape:current-layer="Layer_1"/>
  <path class="fil0" d="M21.3993 21.0147l0.766476 -3.83155 -6.04905 -2.1839 1.4715 2.57457 3.84464 1.3289 -0.0331429 2.11198 -0.000428571 0zm-0.242857 1.9341l3.8006 0.950048 0.0135238 0 3.8006 -0.950048 -0.092 1.07257 -2.97307 1.93102 -0.0305238 2.45205 5.93176 3.41388 -6.64331 -2.41893 -6.29931 2.31602 5.58776 -3.31098 -0.0305238 -2.45205 -2.97307 -1.93102 -0.092 -1.07257 -0.000428571 0zm7.55629 -1.85081l-1.21164 -4.24881 6.21517 -1.73833 -1.37862 2.4525 -3.82502 1.18155 0.200119 2.3531z"/>
  <path class="fil0 str0" d="M24.8846 8.36067l-0.000857143 0 0 -0.000404762 -15.0755 -5.10164 15.038 -0.278143 0.0758571 0 15.038 0.278143 -15.0755 5.10164 0 0.000404762zm-9.99045 -1.13181c-0.93831,1.28052 -3.14055,1.11398 -5.01269,1.11398l-0.139071 0c-0.782619,0 -1.45145,3.16574 -2.08843,3.89867 0,-1.24693 0.37319,-6.12662 2.50655,-6.12662 0.736405,0 3.88343,0.915548 4.73407,1.11398l-0.000428571 0zm19.6757 0c0.93831,1.28052 3.14052,1.11398 5.01267,1.11398l0.139095 0c0.782643,0 1.45145,3.16574 2.08843,3.89867 0,-1.24693 -0.37319,-6.12662 -2.50652,-6.12662 -0.736405,0 -3.88348,0.915548 -4.73407,1.11398l0.000404762 0z"/>
  <polygon class="fil0" points="32.7611,0.268381 24.6162,8.36069 16.2562,0.252952 24.5738,2.40926 "/>
  <path class="fil1 str0" d="M7.20662 18.4471c0.225643,-0.358643 0.458571,-0.697429 0.698357,-1.01745 -1.37455,1.57338 -2.39645,3.00043 -3.08195,3.93033 1.92583,-9.07362 8.44593,-14.8616 20.0607,-15.11l0 -0.000833333 -0.000428571 0.000428571 0.00761905 0.000214286 0.00764286 -0.000214286 0 -0.000428571 0 0.000857143c11.6145,0.248524 18.1345,6.03648 20.0603,15.11 -0.56469,-0.766024 -1.35743,-1.8695 -2.38774,-3.11402 0.00761905,0.012 0.0153095,0.0238095 0.0229048,0.035881 1.25567,3.90526 3.08993,9.58367 -0.96181,17.5817 -0.0151905,-2.22688 -0.086119,-4.25369 -0.238619,-6.11905 -0.509738,5.03831 -3.22719,10.3007 -8.46607,14.0341 0.983952,-2.6706 1.79607,-4.77574 2.47714,-6.82745l-6.5956 8.98957 0.532524 -4.35364 -4.48488 7.29707 -4.35345 -7.08402 0.412905 4.1406 -6.64593 -9.05874 -0.0005 -0.000428571c0.685762,2.07379 1.50498,4.19624 2.50007,6.89705 -5.066,-3.61021 -7.77414,-8.6501 -8.40838,-13.5346 -0.1275,1.72507 -0.188214,3.58821 -0.202143,5.61948 -4.01381,-7.92298 -2.19657,-13.5478 -0.952667,-17.4164zm0.698357 -1.01745c4.08267,-2.39993 6.29207,-4.60812 8.47505,-5.05036 -4.38133,3.96164 -6.5335,7.99257 -7.5085,13.5872l2.67414 -3.67219c0.41319,4.62698 0.90981,7.81507 1.56945,10.5655l1.30729 -3.88288 5.68107 10.3196 -0.548476 -4.01162 5.30171 6.74448 5.30174 -6.74448 -0.53669 4.01162 5.68148 -10.3196 1.29062 3.83412c0.653857,-2.73931 1.14705,-5.91702 1.55779,-10.5167l2.80955 3.85812c-0.960952,-5.79386 -3.13198,-9.93083 -7.62779,-13.9959 1.87324,0.355381 3.83933,1.55879 5.48283,2.62957 -3.35455,-2.92021 -8.06807,-6.15026 -13.9185,-6.4254 -5.68717,0 -13.3729,4.74419 -16.9927,9.06898z"/>
 </g>
</svg>
