<?xml version="1.0" encoding="UTF-8"?>
<!DOCTYPE svg PUBLIC "-//W3C//DTD SVG 1.1//EN" "http://www.w3.org/Graphics/SVG/1.1/DTD/svg11.dtd">
<!-- Creator: CorelDRAW -->
<svg xmlns="http://www.w3.org/2000/svg" xml:space="preserve" width="30.3289mm" height="12.0262mm" style="shape-rendering:geometricPrecision; text-rendering:geometricPrecision; image-rendering:optimizeQuality; fill-rule:evenodd; clip-rule:evenodd"
viewBox="0 0 7.80048 3.09309"
 xmlns:xlink="http://www.w3.org/1999/xlink">
 <defs>
  <style type="text/css">
   <![CDATA[
    .fil2 {fill:white}
    .fil1 {fill:#75C5F0;fill-rule:nonzero}
    .fil0 {fill:white;fill-rule:nonzero}
   ]]>
  </style>
 </defs>
 <g id="Слой_x0020_1">
  <metadata id="CorelCorpID_0Corel-Layer"/>
  <path class="fil0" d="M7.80048 1.19727c0,0.0676426 -0.0210129,0.127492 -0.0630645,0.178674 -0.0420259,0.0511821 -0.0973231,0.0767474 -0.165866,0.0767474 -0.0653279,0 -0.120162,-0.0164348 -0.165403,-0.0493303 -0.0452408,-0.0328954 -0.0676426,-0.0817884 -0.0676426,-0.145779 0,-0.0315323 0.00228905,-0.0557344 0.00686714,-0.0730952 0.00455238,-0.0173608 0.00823028,-0.0338213 0.0118825,-0.048893 -0.0411257,0.00182609 -0.0840775,0.0159976 -0.129781,0.0429518 -0.0456781,0.0264912 -0.0859036,0.0626016 -0.120625,0.106917l0 0.735221c0,0.0310693 0.00501533,0.0571233 0.0150717,0.0776733 0.00959342,0.0201128 0.026054,0.0365476 0.049356,0.0479928 0.0196498,0.0100307 0.0516193,0.0182609 0.095497,0.0246651 0.0443149,0.00684142 0.0763102,0.0105193 0.09596,0.0114195l0 0.097786 -0.895609 0 0 -0.097786c0.0224018,-0.00182609 0.0447779,-0.00411514 0.0676426,-0.00730438 0.022839,-0.00321495 0.0420259,-0.00730438 0.0580235,-0.0128084 0.0287803,-0.00959342 0.0484301,-0.0251281 0.0589494,-0.0452408 0.0109566,-0.02055 0.0159976,-0.0475042 0.0159976,-0.0803996l0 -0.779099c0,-0.0324325 -0.0073301,-0.0612127 -0.0224018,-0.0863408 -0.0155347,-0.025591 -0.0338213,-0.0457038 -0.0552972,-0.0612384 -0.0159719,-0.0105193 -0.0360846,-0.0196498 -0.0607755,-0.0265169 -0.0246651,-0.00730438 -0.0516193,-0.0123197 -0.0808625,-0.0146088l0 -0.097786 0.638336 -0.0347215 0.0201128 0.020087 0 0.193746 0.00547828 0c0.0617014,-0.0712691 0.127029,-0.127029 0.196035,-0.167692 0.069443,-0.0406627 0.141201,-0.0612384 0.216122,-0.0612384 0.0831773,0 0.149868,0.026054 0.20015,0.0772361 0.0507191,0.0511821 0.0758472,0.117436 0.0758472,0.198761z"/>
  <path class="fil0" d="M4.61163 0.454286c0,0.0676426 -0.0260283,0.125666 -0.0785992,0.173196 -0.0520823,0.0479671 -0.113758,0.0717321 -0.185053,0.0717321 -0.072658,0 -0.134797,-0.0237649 -0.186879,-0.0717321 -0.052108,-0.0475299 -0.0781362,-0.105553 -0.0781362,-0.173196 0,-0.0680799 0.0260283,-0.12564 0.0781362,-0.174096 0.0520823,-0.0479671 0.114221,-0.072195 0.186879,-0.072195 0.072195,0 0.134334,0.0242279 0.185979,0.072195 0.051645,0.0484558 0.0776733,0.106016 0.0776733,0.174096z"/>
  <path class="fil0" d="M4.83246 2.25451l-0.84579 0 0 -0.097786c0.023302,-0.00182609 0.0461667,-0.00411514 0.0680799,-0.00684142 0.0224018,-0.00228905 0.0415886,-0.00686714 0.0575863,-0.0132713 0.0287803,-0.0104936 0.048893,-0.0260283 0.0603125,-0.046141 0.0118825,-0.0201128 0.0173608,-0.046604 0.0173608,-0.0794994l0 -0.779099c0,-0.0315323 -0.00684142,-0.0589494 -0.0214759,-0.0822514 -0.0141715,-0.0237392 -0.0319695,-0.0429518 -0.0534454,-0.0570976 -0.0159976,-0.0105193 -0.0402255,-0.0210387 -0.072658,-0.0306321 -0.0328954,-0.0100564 -0.0626016,-0.0164348 -0.0891185,-0.0187239l0 -0.097786 0.655722 -0.0347215 0.020087 0.020087 0 1.06286c0,0.0310693 0.00686714,0.0575605 0.0201128,0.0794994 0.0132456,0.0219388 0.0324582,0.0383737 0.0575863,0.048893 0.0178237,0.00823028 0.0374735,0.0150717 0.0589494,0.0214759 0.0214759,0.00640419 0.043852,0.0104936 0.066691,0.0132456l0 0.097786z"/>
  <path class="fil0" d="M3.90735 1.05013c-0.0401998,0.00594124 -0.0794994,0.0210387 -0.117436,0.0452408 -0.0379107,0.0242279 -0.0689801,0.0617014 -0.0941081,0.112421 -0.0626016,0.130219 -0.12384,0.261826 -0.184153,0.394333 -0.0603125,0.132508 -0.119262,0.2609 -0.177311,0.38474 -0.017798,0.0374735 -0.0383737,0.0859036 -0.0607498,0.144853 -0.0228648,0.0589494 -0.0420516,0.112395 -0.0571233,0.160388l-0.246291 0c-0.102827,-0.238061 -0.190557,-0.435922 -0.263189,-0.592658 -0.072658,-0.157173 -0.149431,-0.325791 -0.230757,-0.506291 -0.0187496,-0.0420259 -0.0479928,-0.0749213 -0.0877297,-0.0991492 -0.0397626,-0.0237649 -0.0799881,-0.0388366 -0.121114,-0.0438777l0 -0.0977603 0.824777 0 0 0.0977603c-0.0306064,0.000925907 -0.0662538,0.0073301 -0.107379,0.0201128 -0.0411257,0.0123454 -0.0616757,0.028343 -0.0616757,0.0479928 0,0.00547828 0.00182609,0.0132456 0.00547828,0.0242022 0.00365219,0.0105193 0.00823028,0.0228648 0.0132456,0.0361104 0.028806,0.0676169 0.0717578,0.165403 0.129318,0.292895 0.0575863,0.127929 0.118362,0.262289 0.182789,0.403027 0.0447779,-0.0973488 0.0872667,-0.192383 0.127929,-0.285591 0.0406627,-0.0932337 0.0909446,-0.21247 0.150331,-0.356886 0.00823028,-0.0214759 0.0128084,-0.0388366 0.0141715,-0.0520823 0.00136314,-0.0137086 0.00228905,-0.0223761 0.00228905,-0.0269542 0,-0.0159976 -0.00776733,-0.0301691 -0.0237649,-0.0420516 -0.0155347,-0.0118825 -0.0338213,-0.0223761 -0.0552972,-0.0315066 -0.0223761,-0.00869324 -0.043852,-0.0155604 -0.0644277,-0.0201128 -0.02055,-0.00457809 -0.0374735,-0.00730438 -0.0507191,-0.00915619l0 -0.0977603 0.552895 0 0 0.0977603z"/>
  <path class="fil1" d="M2.65918 2.28023l-1.22505 0 0 -0.12384c0.0573548,-0.00380651 0.124432,-0.0140686 0.201205,-0.0308378 0.0773389,-0.0162291 0.115738,-0.0367791 0.115738,-0.0605955 0,-0.0086418 -0.000514393,-0.0183638 -0.00216045,-0.0286774 -0.00162034,-0.0108022 -0.00594124,-0.0248709 -0.0135285,-0.0426946l-0.191997 -0.466246 -0.776116 0c-0.0178494,0.0433119 -0.0378593,0.0941339 -0.0595152,0.152569 -0.0216045,0.0578692 -0.0405341,0.109771 -0.0562231,0.155192 -0.0200356,0.0589751 -0.0319181,0.10167 -0.0356989,0.128187 -0.00378079,0.0265169 -0.00542684,0.0449065 -0.00542684,0.0557087 0,0.0335127 0.0254367,0.0621901 0.0768245,0.0860065 0.0513878,0.0237649 0.136288,0.0411 0.255833,0.0513878l0 0.12384 -0.922177 0 0 -0.12384c0.0346186,-0.00164606 0.0740983,-0.00758729 0.117899,-0.0162291 0.0438005,-0.00918191 0.0784192,-0.0216302 0.103856,-0.0373192 0.0432861,-0.025411 0.0800652,-0.0568147 0.110337,-0.0935937 0.0297576,-0.0367534 0.0551686,-0.0805796 0.0751785,-0.131402 0.12222,-0.296959 0.245005,-0.594406 0.368331,-0.89242 0.123326,-0.297473 0.259048,-0.626299 0.407811,-0.985422l0.316943 0c0.20712,0.50948 0.369385,0.91189 0.486744,1.20772 0.117384,0.295313 0.216868,0.540858 0.299094,0.735016 0.0140686,0.0319181 0.0313522,0.0605955 0.0524423,0.0865208 0.0211158,0.0254624 0.0513878,0.0503333 0.0903274,0.0735839 0.0297576,0.0167435 0.0638361,0.0297319 0.103341,0.0378336 0.0389138,0.00869324 0.0740983,0.0140686 0.105991,0.0157147l0 0.12384zm-1.18069 -0.909729l-0.326151 -0.814515 -0.321804 0.814515 0.647955 0z"/>
  <path class="fil0" d="M0.119982 3.07699l0 0.0159719 0.158407 0 0 -0.0159719c-0.0182867,0 -0.0319695,-0.00252052 -0.0410485,-0.00766445 -0.0106222,-0.00558116 -0.0159976,-0.0145573 -0.0159976,-0.0270313l0 -0.0653536c0.00987634,0.00810168 0.0194955,0.0144544 0.0289089,0.0191611 0.0132456,0.00645563 0.0273657,0.00961914 0.0422574,0.00961914 0.0278029,0 0.0524423,-0.0159719 0.0737896,-0.0480443 0.0222218,-0.0329469 0.0333841,-0.0731209 0.0333841,-0.120625 0,-0.0512335 -0.0119339,-0.0916391 -0.0359046,-0.121191 -0.0210129,-0.026054 -0.0464239,-0.0390681 -0.0763102,-0.0390681 -0.0133485,0 -0.0259511,0.00336927 -0.0378593,0.0102879 -0.0103136,0.00632703 -0.019727,0.0150974 -0.0282659,0.0262597l0 -0.171216 -0.0987377 0.0262855 0 0.0102879c0.0179523,-0.000437234 0.0316351,0.00141458 0.0410485,0.00568404 0.0110594,0.00470669 0.0166406,0.0126026 0.0166406,0.0237649l0 0.105193c-0.00601839,-0.0132456 -0.0160748,-0.0228648 -0.030092,-0.0289089 -0.0115996,-0.00514393 -0.0250766,-0.00763873 -0.0405084,-0.00763873 -0.0311979,0 -0.0572519,0.0145573 -0.0782648,0.0435433 -0.0209101,0.0300148 -0.0314294,0.0688772 -0.0314294,0.116716 0,0.0483786 0.00877039,0.087884 0.0262855,0.118645 0.019264,0.0333841 0.0454209,0.0500247 0.0782648,0.0500247 0.0149945,0 0.0284716,-0.00252052 0.0405084,-0.00766445 0.0110594,-0.00426946 0.0228648,-0.0113681 0.0352359,-0.0212187l0 0.0654565c0,0.0129113 -0.00491245,0.0218874 -0.0147631,0.0270313 -0.00897615,0.00514393 -0.0240993,0.00766445 -0.0455495,0.00766445zm0.0603125 -0.332889l0 0.206451c-0.00941339,0.012474 -0.019264,0.0218874 -0.0295519,0.0282402 -0.010185,0.00689286 -0.0213473,0.0102879 -0.0332812,0.0102879 -0.0239707,0 -0.042566,-0.0134514 -0.0558116,-0.0403798 -0.0132456,-0.0264912 -0.0199327,-0.0628331 -0.0199327,-0.109026 0,-0.041923 0.00558116,-0.0753328 0.0166406,-0.100049 0.0136828,-0.0307607 0.0353645,-0.0462182 0.0648135,-0.0462182 0.0145573,0 0.0259254,0.00339499 0.0340271,0.0103136 0.00853892,0.0072015 0.0162034,0.0206786 0.0230962,0.0403798zm0.0410485 0.206451l0 -0.206451c0.00766445,-0.0170778 0.0170778,-0.0302206 0.0282659,-0.0391967 0.00941339,-0.00766445 0.0190325,-0.0114967 0.0288831,-0.0114967 0.0281373,0 0.0491502,0.0141458 0.0628331,0.042386 0.0114967,0.0242793 0.0173093,0.0583321 0.0173093,0.101901 0,0.0461925 -0.00624987,0.0823285 -0.018621,0.108383 -0.0132456,0.0286774 -0.0327154,0.0430032 -0.0583321,0.0430032 -0.0141201,0 -0.0264912,-0.00383223 -0.037242,-0.0114967 -0.00985062,-0.00689286 -0.0174894,-0.015869 -0.0230962,-0.0270313zm0.230319 -0.264141l0 0.0166406c0.0153289,0 0.0264912,0.00174894 0.0332812,0.00514393 0.00514393,0.00252052 0.00985062,0.00743297 0.0141201,0.0147888l0.107817 0.253956 -0.0129113 0.0320724c-0.00678998,0.0170778 -0.0134514,0.0303234 -0.0198041,0.0397368 -0.00689286,0.0102879 -0.0130399,0.0154318 -0.018621,0.0154318 -0.00645563,0 -0.0115996,-0.00195469 -0.0154318,-0.00578692 -0.00252052,-0.00208329 -0.00534968,-0.00624987 -0.00830744,-0.0121654 -0.00339499,-0.00645563 -0.00645563,-0.0109566 -0.00897615,-0.0134514 -0.00426946,-0.00383223 -0.00985062,-0.00581264 -0.0166406,-0.00581264 -0.0102879,0 -0.0181838,0.00316351 -0.0237649,0.00964486 -0.00558116,0.00601839 -0.00830744,0.0136828 -0.00830744,0.0230962 0,0.00897615 0.00339499,0.0164091 0.0101593,0.0224275 0.00823028,0.00722722 0.0201642,0.010828 0.0360332,0.010828 0.0213473,0 0.0377564,-0.00501533 0.049356,-0.0153032 0.0153289,-0.0132456 0.0307607,-0.0394282 0.0461925,-0.0782906l0.0987377 -0.250123c0.00810168,-0.019264 0.0168721,-0.0320724 0.0262855,-0.038528 0.00810168,-0.00514393 0.0210129,-0.00766445 0.038528,-0.00766445l0 -0.0166406 -0.111649 0 0 0.0166406c0.0171807,0 0.0282402,0.00228905 0.0333841,0.00699574 0.00470669,0.00470669 0.00514393,0.0124997 0.0013117,0.0230962l-0.0757443 0.19246 -0.0839746 -0.198787c-0.00383223,-0.00941339 -0.00370363,-0.0156633 0.00066871,-0.018621 0.00426946,-0.00339499 0.0148917,-0.00514393 0.0320724,-0.00514393l0 -0.0166406 -0.123814 0zm0.462388 0.253313l0 -0.198144c0.00941339,-0.0128084 0.0201385,-0.0224275 0.0320724,-0.0288831 0.0111623,-0.00560688 0.0235335,-0.00833316 0.0372163,-0.00833316 0.0307607,0 0.0551686,0.0141201 0.0731209,0.0423602 0.016332,0.0251795 0.0244079,0.0568147 0.0244079,0.0949054 0,0.0376535 -0.00807596,0.0690829 -0.0244079,0.0942625 -0.0175151,0.0282402 -0.041923,0.0423602 -0.0731209,0.0423602 -0.0170778,0 -0.0316351,-0.00426946 -0.0436719,-0.0128084 -0.00897615,-0.00558116 -0.0175151,-0.0141201 -0.0256168,-0.0257196zm-0.0833059 0.153238l0.126875 0 0 -0.0166149c-0.0144544,0 -0.0253853,-0.002752 -0.0326125,-0.00833316 -0.0073301,-0.00601839 -0.0109566,-0.0156633 -0.0109566,-0.0289089l0 -0.0729923c0.00985062,0.0101593 0.0211415,0.0181581 0.0340528,0.0236363 0.0148917,0.0073301 0.0314037,0.0109566 0.049356,0.0109566 0.0401741,0 0.0718092,-0.0164348 0.0949054,-0.0493817 0.0213473,-0.0295519 0.0320724,-0.0661252 0.0320724,-0.109694 0,-0.0440063 -0.0107251,-0.0809911 -0.0320724,-0.11098 -0.0230962,-0.0325353 -0.0547314,-0.048713 -0.0949054,-0.048713 -0.0183895,0 -0.0349015,0.00316351 -0.049356,0.00961914 -0.012474,0.00601839 -0.0237649,0.0145573 -0.0340528,0.0256168l0 -0.0352359 -0.0833059 0.0275714 0.00318923 0.00964486c0.0149945,0 0.025591,0.00208329 0.0320724,0.00635275 0.00601839,0.00426946 0.00897615,0.0118053 0.00897615,0.0224275l0 0.291172c0,0.0136828 -0.00318923,0.0233277 -0.00964486,0.0289089 -0.00635275,0.00558116 -0.0179523,0.00833316 -0.0345929,0.00833316l0 0.0166149zm0.341865 -0.0922563l0.167383 0 0 -0.0166406c-0.0239707,0 -0.0406113,-0.00339499 -0.0500247,-0.0102879 -0.00853892,-0.00635275 -0.0128084,-0.0173093 -0.0128084,-0.0327411l0 -0.0962171 0.164194 0 0 0.0962171c0,0.0154318 -0.00493817,0.0263883 -0.0147888,0.0327411 -0.00985062,0.00689286 -0.026054,0.0102879 -0.048713,0.0102879l0 0.0166406 0.167383 0 0 -0.0166406c-0.0239707,0 -0.0406113,-0.00339499 -0.0500247,-0.0102879 -0.00853892,-0.00635275 -0.0128084,-0.0173093 -0.0128084,-0.0327411l0 -0.200767c0,-0.0132456 0.00450094,-0.022659 0.0134771,-0.0282402 0.00941339,-0.00601839 0.0258225,-0.00897615 0.049356,-0.00897615l0 -0.0166406 -0.167383 0 0 0.0166406c0.0222218,0 0.0384251,0.00295776 0.048713,0.00897615 0.00985062,0.00558116 0.0147888,0.0149945 0.0147888,0.0282402l0 0.0879097 -0.164194 0 0 -0.0879097c0,-0.0132456 0.00426946,-0.022659 0.0128084,-0.0282402 0.00985062,-0.00601839 0.0264912,-0.00897615 0.0500247,-0.00897615l0 -0.0166406 -0.167383 0 0 0.0166406c0.0247423,0 0.0417172,0.00295776 0.0506934,0.00897615 0.00853892,0.00514393 0.0128084,0.0145573 0.0128084,0.0282402l0 0.200767c0,0.0154318 -0.00450094,0.0263883 -0.0134771,0.0327411 -0.00941339,0.00689286 -0.026054,0.0102879 -0.0500247,0.0102879l0 0.0166406zm0.423319 0l0.162239 0 0 -0.0166406c-0.0217845,0 -0.0370106,-0.00339499 -0.0455495,-0.0102879 -0.00810168,-0.00635275 -0.0121397,-0.0173093 -0.0121397,-0.0327411l0 -0.00383223 0.164194 -0.166715 0 0.170547c0,0.0149945 -0.00470669,0.0259511 -0.0141201,0.0327411 -0.00941339,0.00689286 -0.0244079,0.0102879 -0.0448808,0.0102879l0 0.0166406 0.162882 0 0 -0.0166406c-0.0239707,0 -0.0406113,-0.00339499 -0.0500247,-0.0102879 -0.00853892,-0.00635275 -0.0128084,-0.0173093 -0.0128084,-0.0327411l0 -0.200767c0,-0.0132456 0.00450094,-0.022659 0.0134771,-0.0282402 0.00941339,-0.00601839 0.0258225,-0.00897615 0.049356,-0.00897615l0 -0.0166406 -0.162882 0 0 0.0166406c0.0201385,0 0.0350301,0.00295776 0.0448808,0.00897615 0.00941339,0.00558116 0.0141201,0.0149945 0.0141201,0.0282402l0 0.00383223 -0.164194 0.167383 0 -0.171216c0,-0.0132456 0.00403798,-0.022659 0.0121397,-0.0282402 0.00897615,-0.00601839 0.0242022,-0.00897615 0.0455495,-0.00897615l0 -0.0166406 -0.162239 0 0 0.0166406c0.0247423,0 0.0417172,0.00295776 0.0506934,0.00897615 0.00853892,0.00514393 0.0128084,0.0145573 0.0128084,0.0282402l0 0.200767c0,0.0154318 -0.00450094,0.0263883 -0.0134771,0.0327411 -0.00941339,0.00689286 -0.026054,0.0102879 -0.0500247,0.0102879l0 0.0166406zm0.500273 0l0.188602 0 0 -0.0166406c-0.0269285,0 -0.045318,-0.00221189 -0.0551686,-0.00648135 -0.0123711,-0.00501533 -0.018621,-0.0150974 -0.018621,-0.030092l0 -0.207223c0,-0.0132456 0.00493817,-0.0228648 0.0147888,-0.0289089 0.00897615,-0.00558116 0.0224275,-0.00830744 0.0403798,-0.00830744 0.0282659,0 0.0498189,0.0100821 0.0648135,0.030092 0.0106222,0.0141458 0.0195984,0.0365733 0.0269285,0.0674369l0.010828 -0.0013117 -0.00632703 -0.112858 -0.335538 0 -0.010828 0.108383 0.010828 0.00252052c0.00648135,-0.0281373 0.0154575,-0.0495875 0.0269542,-0.0641705 0.0167435,-0.0200099 0.0402769,-0.030092 0.0706004,-0.030092 0.0162034,0 0.0278029,0.00272628 0.0345929,0.00830744 0.0073301,0.00560688 0.0109308,0.015226 0.0109308,0.0289089l0 0.207223c0,0.0145573 -0.00722722,0.0246394 -0.0217845,0.030092 -0.0107251,0.00426946 -0.0280087,0.00648135 -0.0519794,0.00648135l0 0.0166406zm0.325225 -0.314294l0 0.0166406c0.0153289,0 0.0264912,0.00174894 0.0332812,0.00514393 0.00514393,0.00252052 0.00985062,0.00743297 0.0141201,0.0147888l0.107817 0.253956 -0.0129113 0.0320724c-0.00678998,0.0170778 -0.0134514,0.0303234 -0.0198041,0.0397368 -0.00689286,0.0102879 -0.0130399,0.0154318 -0.018621,0.0154318 -0.00645563,0 -0.0115996,-0.00195469 -0.0154318,-0.00578692 -0.00252052,-0.00208329 -0.00534968,-0.00624987 -0.00830744,-0.0121654 -0.00339499,-0.00645563 -0.00645563,-0.0109566 -0.00897615,-0.0134514 -0.00426946,-0.00383223 -0.00985062,-0.00581264 -0.0166406,-0.00581264 -0.0102879,0 -0.0181838,0.00316351 -0.0237649,0.00964486 -0.00558116,0.00601839 -0.00830744,0.0136828 -0.00830744,0.0230962 0,0.00897615 0.00339499,0.0164091 0.0101593,0.0224275 0.00823028,0.00722722 0.0201642,0.010828 0.0360332,0.010828 0.0213473,0 0.0377564,-0.00501533 0.049356,-0.0153032 0.0153289,-0.0132456 0.0307607,-0.0394282 0.0461925,-0.0782906l0.0987377 -0.250123c0.00810168,-0.019264 0.0168721,-0.0320724 0.0262855,-0.038528 0.00810168,-0.00514393 0.0210129,-0.00766445 0.038528,-0.00766445l0 -0.0166406 -0.111649 0 0 0.0166406c0.0171807,0 0.0282402,0.00228905 0.0333841,0.00699574 0.00470669,0.00470669 0.00514393,0.0124997 0.0013117,0.0230962l-0.0757443 0.19246 -0.0839746 -0.198787c-0.00383223,-0.00941339 -0.00370363,-0.0156633 0.00066871,-0.018621 0.00426946,-0.00339499 0.0148917,-0.00514393 0.0320724,-0.00514393l0 -0.0166406 -0.123814 0zm0.462388 0.253313l0 -0.198144c0.00941339,-0.0128084 0.0201385,-0.0224275 0.0320724,-0.0288831 0.0111623,-0.00560688 0.0235335,-0.00833316 0.0372163,-0.00833316 0.0307607,0 0.0551686,0.0141201 0.0731209,0.0423602 0.016332,0.0251795 0.0244079,0.0568147 0.0244079,0.0949054 0,0.0376535 -0.00807596,0.0690829 -0.0244079,0.0942625 -0.0175151,0.0282402 -0.041923,0.0423602 -0.0731209,0.0423602 -0.0170778,0 -0.0316351,-0.00426946 -0.0436719,-0.0128084 -0.00897615,-0.00558116 -0.0175151,-0.0141201 -0.0256168,-0.0257196zm-0.0833059 0.153238l0.126875 0 0 -0.0166149c-0.0144544,0 -0.0253853,-0.002752 -0.0326125,-0.00833316 -0.0073301,-0.00601839 -0.0109566,-0.0156633 -0.0109566,-0.0289089l0 -0.0729923c0.00985062,0.0101593 0.0211415,0.0181581 0.0340528,0.0236363 0.0148917,0.0073301 0.0314037,0.0109566 0.049356,0.0109566 0.0401741,0 0.0718092,-0.0164348 0.0949054,-0.0493817 0.0213473,-0.0295519 0.0320724,-0.0661252 0.0320724,-0.109694 0,-0.0440063 -0.0107251,-0.0809911 -0.0320724,-0.11098 -0.0230962,-0.0325353 -0.0547314,-0.048713 -0.0949054,-0.048713 -0.0183895,0 -0.0349015,0.00316351 -0.049356,0.00961914 -0.012474,0.00601839 -0.0237649,0.0145573 -0.0340528,0.0256168l0 -0.0352359 -0.0833059 0.0275714 0.00318923 0.00964486c0.0149945,0 0.025591,0.00208329 0.0320724,0.00635275 0.00601839,0.00426946 0.00897615,0.0118053 0.00897615,0.0224275l0 0.291172c0,0.0136828 -0.00318923,0.0233277 -0.00964486,0.0289089 -0.00635275,0.00558116 -0.0179523,0.00833316 -0.0345929,0.00833316l0 0.0166149zm0.633603 -0.113398l-0.00570976 -0.00712434c-0.00601839,0.00560688 -0.0118053,0.00964486 -0.0173865,0.0122683 -0.00383223,0.00164606 -0.00810168,0.00252052 -0.0128084,0.00252052 -0.00514393,0 -0.00853892,-0.00339499 -0.0102879,-0.0102879 -0.00164606,-0.00591552 -0.00252052,-0.0143516 -0.00252052,-0.024948l0 -0.182172c0,-0.0282402 -0.00877039,-0.0500247 -0.0262855,-0.0654565 -0.0166406,-0.0149945 -0.0392996,-0.0224275 -0.067977,-0.0224275 -0.0337184,0 -0.0626016,0.00612127 -0.0865723,0.0184924 -0.0235335,0.0129113 -0.0352616,0.0275714 -0.0352616,0.0443406 0,0.00897615 0.00208329,0.0157661 0.00635275,0.0204728 0.00426946,0.00514393 0.0107251,0.00776733 0.019264,0.00776733 0.00776733,0 0.0141201,-0.00306064 0.019264,-0.00897615 0.00339499,-0.00396082 0.00678998,-0.0100821 0.0102879,-0.018621 0.00558116,-0.0171807 0.0134771,-0.0293204 0.0237649,-0.0365476 0.00974774,-0.00735582 0.0229934,-0.0109566 0.0397368,-0.0109566 0.0188268,0 0.0332812,0.00601839 0.0435691,0.0179523 0.00985062,0.0111623 0.0147631,0.0269285 0.0147631,0.0475042l0 0.0468612c-0.0598753,0.010185 -0.106068,0.0262597 -0.138577,0.0480443 -0.0325096,0.0214502 -0.048713,0.0468612 -0.048713,0.076413 0,0.0222218 0.00699574,0.0404055 0.0211415,0.0545256 0.0149945,0.0149945 0.0359046,0.0224275 0.0628331,0.0224275 0.0205757,0 0.0398397,-0.00426946 0.057792,-0.0128084 0.0149945,-0.0073301 0.030092,-0.0179523 0.0455238,-0.0320724 0,0.0132456 0.00218617,0.0235335 0.00645563,0.0307607 0.00547828,0.00941339 0.0151231,0.0141201 0.028806,0.0141201 0.0114967,0 0.0217845,-0.00316351 0.0307607,-0.00961914 0.00645563,-0.00470669 0.0136828,-0.0121654 0.0217845,-0.0224532zm-0.0878068 -0.151489l0 0.118645c-0.0145573,0.0136828 -0.0284459,0.0233277 -0.0416915,0.0289089 -0.0141201,0.00645563 -0.0305549,0.00961914 -0.0493817,0.00961914 -0.0154318,0 -0.0280087,-0.00491245 -0.0378593,-0.0147631 -0.00985062,-0.00985062 -0.0147888,-0.0222218 -0.0147888,-0.0372163 0,-0.0278029 0.015226,-0.051465 0.0455495,-0.0711662 0.0264912,-0.0175151 0.0592066,-0.0288831 0.0981718,-0.0340271zm0.350199 0.150177l-0.00702146 0.114838 0.0166406 0c0.00470669,-0.0291146 0.011831,-0.0508992 0.0211415,-0.0654565 0.0115996,-0.0179523 0.0280087,-0.0269285 0.0494589,-0.0269285l0.202619 0c0.0210387,0 0.0385537,0.00743297 0.0526738,0.0224275 0.0141201,0.0149945 0.0253853,0.0383223 0.0339242,0.0699574l0.0167435 0 -0.00776733 -0.10455c-0.0230962,0 -0.0390681,-0.00198041 -0.0480443,-0.00578692 -0.00985062,-0.00426946 -0.0147888,-0.0119339 -0.0147888,-0.023122l0 -0.235463c0,-0.00853892 0.00581264,-0.014223 0.0173093,-0.0172836 0.00941339,-0.00252052 0.0254882,-0.00383223 0.0481472,-0.00383223l0 -0.0166406 -0.347009 0 0 0.0166406c0.0256168,0 0.0424888,0.00110594 0.0506934,0.00316351 0.0110594,0.00264912 0.0166406,0.00877039 0.0166406,0.018621 0,0.0585636 -0.00581264,0.105631 -0.0173093,0.141098 -0.015869,0.0470669 -0.0438777,0.0845147 -0.0840518,0.112318zm0.130913 -0.2752l0.143618 0 0 0.256579 -0.216199 0c0.0252824,-0.0333841 0.0427975,-0.0656622 0.0526481,-0.0968601 0.0132456,-0.0401741 0.0199327,-0.093388 0.0199327,-0.159719zm0.466323 0.030092l0 0.156555c0,0.0295519 -0.00699574,0.0530853 -0.0211158,0.0706004 -0.012474,0.015869 -0.0265941,0.0237649 -0.0423602,0.0237649 -0.00470669,0 -0.00941339,-0.00252052 -0.0141201,-0.00766445 -0.00295776,-0.00308636 -0.00722722,-0.00853892 -0.0128084,-0.0167692 -0.00689286,-0.0101593 -0.0123711,-0.0172836 -0.0167435,-0.0211158 -0.00722722,-0.00645563 -0.0144544,-0.00964486 -0.0217845,-0.00964486 -0.0106222,0 -0.019264,0.00339499 -0.0256168,0.0103136 -0.00645563,0.00632703 -0.00964486,0.0150974 -0.00964486,0.0262597 0,0.0149945 0.00514393,0.026054 0.0154318,0.0333841 0.0110594,0.00853892 0.0298862,0.0128084 0.0563774,0.0128084 0.0325096,0 0.0582292,-0.0100564 0.0769531,-0.030092 0.0213473,-0.0227876 0.0320724,-0.0560431 0.0320724,-0.100178l0 -0.178314 0.122503 0 0 0.236132c0,0.0145573 -0.00493817,0.0253853 -0.0147888,0.0327154 -0.0102879,0.00810168 -0.0271342,0.0121654 -0.0506677,0.0121654l0 0.0166406 0.171961 0 0 -0.0166406c-0.0257196,0 -0.0436719,-0.00450094 -0.0539598,-0.0134771 -0.00766445,-0.00689286 -0.0114967,-0.0175151 -0.0114967,-0.0320724l0 -0.196395c0,-0.0153032 0.00383223,-0.025591 0.0114967,-0.0307607 0.00907903,-0.00558116 0.0270313,-0.00830744 0.0539598,-0.00830744l0 -0.0166406 -0.311105 0 0 0.0166406c0.0244079,0 0.04128,0.00218617 0.0506934,0.00645563 0.00985062,0.00426946 0.0147631,0.0121654 0.0147631,0.0236363zm0.297653 0.252104l0 0.0147888 0.0704975 0 0.105193 -0.144287 0.0352359 0 0 0.097426c0,0.0107251 -0.00426946,0.0190582 -0.0128084,0.0250766 -0.00810168,0.00601839 -0.019264,0.00897615 -0.0333841,0.00897615l0 0.0128084 0.134771 0 0 -0.0128084c-0.012937,0 -0.0237649,-0.00316351 -0.0327411,-0.00964486 -0.00985062,-0.0072015 -0.0147888,-0.0166149 -0.0147888,-0.0282402l0 -0.205886c0,-0.0140172 0.00450094,-0.0247423 0.0134771,-0.0320981 0.00941339,-0.00763873 0.0230962,-0.010828 0.0410485,-0.00951626l0 -0.0154318 -0.166715 0c-0.0295519,0 -0.0538569,0.00810168 -0.0731209,0.0244079 -0.0183895,0.0157661 -0.0275972,0.0352616 -0.0275972,0.0583578 0,0.0239707 0.00985062,0.0437748 0.029449,0.0596438 0.019264,0.0157661 0.0423602,0.0237649 0.0692887,0.0237649l-0.0827401 0.10509c-0.00678998,0.00820456 -0.0144544,0.0145573 -0.0229934,0.019264 -0.0102879,0.00558116 -0.0210129,0.00830744 -0.0320724,0.00830744zm0.210927 -0.283508l0 0.138577 -0.0634761 0c-0.0154318,0 -0.0298862,-0.00558116 -0.0435691,-0.0166406 -0.015869,-0.0129113 -0.0237649,-0.0293204 -0.0237649,-0.0494589 0,-0.026054 0.0105193,-0.044675 0.0314294,-0.0557344 0.0204728,-0.0111623 0.0536254,-0.0167435 0.0993807,-0.0167435zm0.372652 0.276512l-0.00702146 0.114838 0.0166406 0c0.00470669,-0.0291146 0.011831,-0.0508992 0.0211415,-0.0654565 0.0115996,-0.0179523 0.0280087,-0.0269285 0.0494589,-0.0269285l0.202619 0c0.0210387,0 0.0385537,0.00743297 0.0526738,0.0224275 0.0141201,0.0149945 0.0253853,0.0383223 0.0339242,0.0699574l0.0167435 0 -0.00776733 -0.10455c-0.0230962,0 -0.0390681,-0.00198041 -0.0480443,-0.00578692 -0.00985062,-0.00426946 -0.0147888,-0.0119339 -0.0147888,-0.023122l0 -0.235463c0,-0.00853892 0.00581264,-0.014223 0.0173093,-0.0172836 0.00941339,-0.00252052 0.0254882,-0.00383223 0.0481472,-0.00383223l0 -0.0166406 -0.347009 0 0 0.0166406c0.0256168,0 0.0424888,0.00110594 0.0506934,0.00316351 0.0110594,0.00264912 0.0166406,0.00877039 0.0166406,0.018621 0,0.0585636 -0.00581264,0.105631 -0.0173093,0.141098 -0.015869,0.0470669 -0.0438777,0.0845147 -0.0840518,0.112318zm0.130913 -0.2752l0.143618 0 0 0.256579 -0.216199 0c0.0252824,-0.0333841 0.0427975,-0.0656622 0.0526481,-0.0968601 0.0132456,-0.0401741 0.0199327,-0.093388 0.0199327,-0.159719zm0.302129 0.297653l0.217408 0c0.0345929,0 0.0648135,-0.00941339 0.0904045,-0.0282659 0.0244337,-0.0183895 0.0365733,-0.0390681 0.0365733,-0.0621644 0,-0.0239707 -0.00897615,-0.0432347 -0.0269285,-0.0576891 -0.0188268,-0.015869 -0.0464239,-0.0252824 -0.0827658,-0.0282402 0.0308893,-0.00470669 0.0535483,-0.0127055 0.0681056,-0.0237649 0.0136828,-0.0107251 0.0204728,-0.0246137 0.0204728,-0.0416915 0,-0.0247423 -0.0102879,-0.0431318 -0.0307607,-0.0551686 -0.019727,-0.0114967 -0.0488416,-0.0173093 -0.0872667,-0.0173093l-0.205243 0 0 0.0166406c0.0200356,0 0.0350301,0.00295776 0.0448808,0.00897615 0.00810168,0.00514393 0.0121654,0.0123711 0.0121654,0.0217845l0 0.224635c0,0.00853892 -0.0040637,0.0148659 -0.0121654,0.0191354 -0.00897615,0.00426946 -0.0239707,0.00648135 -0.0448808,0.00648135l0 0.0166406zm0.0980947 -0.179652l0 -0.087241c0,-0.00897615 0.00426946,-0.0162034 0.0128084,-0.0217845 0.00985062,-0.00601839 0.0239707,-0.00897615 0.0423602,-0.00897615l0.0500247 0c0.0265941,0 0.045961,0.00514393 0.0584607,0.0154318 0.0110337,0.00897615 0.0166406,0.0213473 0.0166406,0.0371134 0,0.0188268 -0.00722722,0.03449 -0.0217845,0.0468612 -0.0141201,0.0123711 -0.0318666,0.0185953 -0.0533168,0.0185953l-0.105193 0zm0 0.0166406l0.116124 0c0.0247423,0 0.045318,0.00689286 0.0615214,0.0205757 0.0167692,0.0136828 0.0250766,0.0309922 0.0250766,0.0520051 0,0.019264 -0.00766445,0.0359046 -0.0230962,0.0500247 -0.0175151,0.015869 -0.0404055,0.0237649 -0.0686457,0.0237649l-0.0558116 0c-0.019264,0 -0.0333841,-0.00221189 -0.0423602,-0.00648135 -0.00853892,-0.00426946 -0.0128084,-0.0105965 -0.0128084,-0.019264l0 -0.120625zm0.572828 0.0873696c-0.0161776,0.0204471 -0.03413,0.0361104 -0.0538569,0.0468355 -0.0188268,0.0106222 -0.0383994,0.0159976 -0.0590008,0.0159976 -0.0303234,0 -0.0551686,-0.0114967 -0.0744326,-0.0345929 -0.0230962,-0.0278029 -0.0345929,-0.0693144 -0.0345929,-0.124483l0.227027 0c0,-0.0448808 -0.0123454,-0.0807854 -0.0372163,-0.107817 -0.0238421,-0.026054 -0.0549371,-0.0390681 -0.092925,-0.0390681 -0.0401741,0 -0.0735582,0.015869 -0.100049,0.0475042 -0.0261569,0.0311979 -0.0391967,0.0698288 -0.0391967,0.116021 0,0.0492788 0.0134771,0.0894529 0.0404055,0.120651 0.0270313,0.0303234 0.0609555,0.0455238 0.102004,0.0455238 0.0295776,0 0.0558373,-0.00766445 0.0789336,-0.0230962 0.0183895,-0.0123711 0.0359046,-0.0307607 0.0525452,-0.0551686l-0.00964486 -0.00830744zm-0.0377564 -0.114838l-0.184127 0c0.00174894,-0.0304263 0.0126026,-0.0569175 0.0327411,-0.0795765 0.019264,-0.0217845 0.0403798,-0.0327411 0.0634761,-0.0327411 0.0247423,0 0.0448808,0.00918191 0.0603383,0.0275972 0.0161776,0.0197012 0.0253853,0.0479414 0.0275714,0.0847205zm0.196164 0.129498l0 -0.198144c0.00941339,-0.0128084 0.0201385,-0.0224275 0.0320724,-0.0288831 0.0111623,-0.00560688 0.0235335,-0.00833316 0.0372163,-0.00833316 0.0307607,0 0.0551686,0.0141201 0.0731209,0.0423602 0.016332,0.0251795 0.0244079,0.0568147 0.0244079,0.0949054 0,0.0376535 -0.00807596,0.0690829 -0.0244079,0.0942625 -0.0175151,0.0282402 -0.041923,0.0423602 -0.0731209,0.0423602 -0.0170778,0 -0.0316351,-0.00426946 -0.0436719,-0.0128084 -0.00897615,-0.00558116 -0.0175151,-0.0141201 -0.0256168,-0.0257196zm-0.0833059 0.153238l0.126875 0 0 -0.0166149c-0.0144544,0 -0.0253853,-0.002752 -0.0326125,-0.00833316 -0.0073301,-0.00601839 -0.0109566,-0.0156633 -0.0109566,-0.0289089l0 -0.0729923c0.00985062,0.0101593 0.0211415,0.0181581 0.0340528,0.0236363 0.0148917,0.0073301 0.0314037,0.0109566 0.049356,0.0109566 0.0401741,0 0.0718092,-0.0164348 0.0949054,-0.0493817 0.0213473,-0.0295519 0.0320724,-0.0661252 0.0320724,-0.109694 0,-0.0440063 -0.0107251,-0.0809911 -0.0320724,-0.11098 -0.0230962,-0.0325353 -0.0547314,-0.048713 -0.0949054,-0.048713 -0.0183895,0 -0.0349015,0.00316351 -0.049356,0.00961914 -0.012474,0.00601839 -0.0237649,0.0145573 -0.0340528,0.0256168l0 -0.0352359 -0.0833059 0.0275714 0.00318923 0.00964486c0.0149945,0 0.025591,0.00208329 0.0320724,0.00635275 0.00601839,0.00426946 0.00897615,0.0118053 0.00897615,0.0224275l0 0.291172c0,0.0136828 -0.00318923,0.0233277 -0.00964486,0.0289089 -0.00635275,0.00558116 -0.0179523,0.00833316 -0.0345929,0.00833316l0 0.0166149zm0.622749 -0.167898c-0.0161776,0.0204471 -0.03413,0.0361104 -0.0538569,0.0468355 -0.0188268,0.0106222 -0.0383994,0.0159976 -0.0590008,0.0159976 -0.0303234,0 -0.0551686,-0.0114967 -0.0744326,-0.0345929 -0.0230962,-0.0278029 -0.0345929,-0.0693144 -0.0345929,-0.124483l0.227027 0c0,-0.0448808 -0.0123454,-0.0807854 -0.0372163,-0.107817 -0.0238421,-0.026054 -0.0549371,-0.0390681 -0.092925,-0.0390681 -0.0401741,0 -0.0735582,0.015869 -0.100049,0.0475042 -0.0261569,0.0311979 -0.0391967,0.0698288 -0.0391967,0.116021 0,0.0492788 0.0134771,0.0894529 0.0404055,0.120651 0.0270313,0.0303234 0.0609555,0.0455238 0.102004,0.0455238 0.0295776,0 0.0558373,-0.00766445 0.0789336,-0.0230962 0.0183895,-0.0123711 0.0359046,-0.0307607 0.0525452,-0.0551686l-0.00964486 -0.00830744zm-0.0377564 -0.114838l-0.184127 0c0.00174894,-0.0304263 0.0126026,-0.0569175 0.0327411,-0.0795765 0.019264,-0.0217845 0.0403798,-0.0327411 0.0634761,-0.0327411 0.0247423,0 0.0448808,0.00918191 0.0603383,0.0275972 0.0161776,0.0197012 0.0253853,0.0479414 0.0275714,0.0847205zm0.112858 0.19048l0.162239 0 0 -0.0166406c-0.0217845,0 -0.0370106,-0.00339499 -0.0455495,-0.0102879 -0.00810168,-0.00635275 -0.0121397,-0.0173093 -0.0121397,-0.0327411l0 -0.00383223 0.164194 -0.166715 0 0.170547c0,0.0149945 -0.00470669,0.0259511 -0.0141201,0.0327411 -0.00941339,0.00689286 -0.0244079,0.0102879 -0.0448808,0.0102879l0 0.0166406 0.162882 0 0 -0.0166406c-0.0239707,0 -0.0406113,-0.00339499 -0.0500247,-0.0102879 -0.00853892,-0.00635275 -0.0128084,-0.0173093 -0.0128084,-0.0327411l0 -0.200767c0,-0.0132456 0.00450094,-0.022659 0.0134771,-0.0282402 0.00941339,-0.00601839 0.0258225,-0.00897615 0.049356,-0.00897615l0 -0.0166406 -0.162882 0 0 0.0166406c0.0201385,0 0.0350301,0.00295776 0.0448808,0.00897615 0.00941339,0.00558116 0.0141201,0.0149945 0.0141201,0.0282402l0 0.00383223 -0.164194 0.167383 0 -0.171216c0,-0.0132456 0.00403798,-0.022659 0.0121397,-0.0282402 0.00897615,-0.00601839 0.0242022,-0.00897615 0.0455495,-0.00897615l0 -0.0166406 -0.162239 0 0 0.0166406c0.0247423,0 0.0417172,0.00295776 0.0506934,0.00897615 0.00853892,0.00514393 0.0128084,0.0145573 0.0128084,0.0282402l0 0.200767c0,0.0154318 -0.00450094,0.0263883 -0.0134771,0.0327411 -0.00941339,0.00689286 -0.026054,0.0102879 -0.0500247,0.0102879l0 0.0166406zm0.2475 -0.392019c-0.00120882,0.00820456 -0.00545256,0.015226 -0.0128084,0.0212444 -0.0110594,0.00810168 -0.0275714,0.0121397 -0.049356,0.0121397 -0.0197012,0 -0.0361361,-0.00383223 -0.0493817,-0.0114967 -0.0115996,-0.00645563 -0.0175151,-0.0136828 -0.0179523,-0.0218874 0.0110594,-0.00635275 0.0166406,-0.0130141 0.0166406,-0.0198041 0.000437234,-0.00601839 -0.00339499,-0.0102879 -0.0114967,-0.0129113 -0.00689286,-0.00339499 -0.0134514,-0.00362647 -0.019907,-0.000565832 -0.00722722,0.00339499 -0.0112909,0.0104165 -0.0121654,0.0211415 0.000874468,0.0251795 0.0106222,0.0455238 0.029449,0.0609555 0.0175151,0.0141458 0.0387595,0.0211415 0.0635018,0.0211415 0.0367791,0 0.0630388,-0.0114967 0.0789078,-0.0345929 0.0114967,-0.0167435 0.0162034,-0.0346958 0.0141201,-0.0539598 -0.000874468,-0.00853892 -0.00470669,-0.0139143 -0.0115996,-0.0159976 -0.00591552,-0.00218617 -0.0121397,-0.00151746 -0.0184924,0.00187753 -0.0073301,0.0026234 -0.0111623,0.00689286 -0.0115996,0.0129113 -0.000874468,0.00635275 0.00316351,0.0130141 0.0121397,0.0198041z"/>
  <path class="fil2" d="M5.60197 0.905923c-0.385563,0 -0.698185,0.312622 -0.698185,0.698211 0,0.385563 0.312622,0.698185 0.698185,0.698185 0.385589,0 0.698211,-0.312622 0.698211,-0.698185 0,-0.385589 -0.312622,-0.698211 -0.698211,-0.698211zm0.195263 1.03038l0 0c0,0.0752814 -0.0874982,0.136057 -0.195392,0.136057 -0.107791,0 -0.195418,-0.0607755 -0.195418,-0.135903 0,-0.0147888 0.108357,-0.445027 0.108357,-0.445027 -0.0600553,-0.0315066 -0.101515,-0.0939024 -0.101515,-0.166715 0,-0.104422 0.0843861,-0.188988 0.189014,-0.188988 0.104422,0 0.188731,0.0846948 0.188731,0.188988 0,0.0728123 -0.0413829,0.135208 -0.101567,0.166715 0,0 0.106917,0.429364 0.107354,0.441966l0.000437234 0.00290632z"/>
 </g>
</svg>
