<?xml version="1.0" encoding="UTF-8" standalone="no"?>
<!-- Generator: Adobe Illustrator 19.0.0, SVG Export Plug-In . SVG Version: 6.00 Build 0)  -->

<svg
   xmlns:dc="http://purl.org/dc/elements/1.1/"
   xmlns:cc="http://creativecommons.org/ns#"
   xmlns:rdf="http://www.w3.org/1999/02/22-rdf-syntax-ns#"
   xmlns:svg="http://www.w3.org/2000/svg"
   xmlns="http://www.w3.org/2000/svg"
   xmlns:sodipodi="http://sodipodi.sourceforge.net/DTD/sodipodi-0.dtd"
   xmlns:inkscape="http://www.inkscape.org/namespaces/inkscape"
   version="1.1"
   id="Layer_1"
   x="0px"
   y="0px"
   viewBox="0 0 504.124 504.124"
   style="enable-background:new 0 0 504.124 504.124;"
   xml:space="preserve"
   sodipodi:docname="offer.svg"
   inkscape:version="0.92.3 (2405546, 2018-03-11)"><metadata
   id="metadata3029"><rdf:RDF><cc:Work
       rdf:about=""><dc:format>image/svg+xml</dc:format><dc:type
         rdf:resource="http://purl.org/dc/dcmitype/StillImage" /></cc:Work></rdf:RDF></metadata><defs
   id="defs3027" /><sodipodi:namedview
   pagecolor="#ffffff"
   bordercolor="#666666"
   borderopacity="1"
   objecttolerance="10"
   gridtolerance="10"
   guidetolerance="10"
   inkscape:pageopacity="0"
   inkscape:pageshadow="2"
   inkscape:window-width="1920"
   inkscape:window-height="977"
   id="namedview3025"
   showgrid="false"
   inkscape:zoom="1.6067476"
   inkscape:cx="252.062"
   inkscape:cy="313.80163"
   inkscape:window-x="-4"
   inkscape:window-y="-4"
   inkscape:window-maximized="1"
   inkscape:current-layer="Layer_1" />
<path
   style="fill:#EFEFEF;"
   d="M23.631,1.97h456.862c12.997,0,23.631,10.634,23.631,23.631v452.923  c0,12.997-10.634,23.631-23.631,23.631H23.631C10.634,502.154,0,491.52,0,478.523V25.601C0,12.604,10.634,1.97,23.631,1.97z"
   id="path2976" />
<path
   style="fill:#324D5B;"
   d="M55.138,57.109h393.846v102.4H55.138V57.109z"
   id="path2978" />
<path
   style="fill:#aeb5ba"
   d="m 310.437,105.946 c 2.363,-1.182 4.332,-2.363 5.514,-4.332 1.182,-1.969 1.969,-4.332 1.969,-6.695 0,-3.938 -1.575,-7.483 -4.332,-9.846 -2.757,-2.757 -7.089,-3.938 -12.209,-3.938 -5.514,0 -9.452,1.182 -12.603,3.938 -2.757,2.757 -4.332,5.908 -4.332,9.846 0,2.363 0.788,4.332 1.969,6.302 1.181,1.97 3.151,3.545 5.908,4.726 -3.151,1.182 -5.514,3.151 -7.089,5.514 -1.575,2.363 -2.363,5.12 -2.363,7.877 0,5.12 1.969,9.452 5.908,12.603 3.545,2.757 7.483,3.938 12.603,3.938 5.514,0 9.846,-1.575 12.997,-4.726 3.151,-3.151 5.12,-7.089 5.12,-12.209 0,-3.151 -0.788,-5.514 -2.363,-7.877 -1.183,-2.364 -3.546,-3.94 -6.697,-5.121 z m -13.785,-15.36 c 1.182,-1.182 2.757,-1.575 5.12,-1.575 1.969,0 3.545,0.394 4.726,1.575 1.182,1.182 1.969,2.757 1.969,4.726 0,1.969 -0.788,3.545 -1.969,4.726 -1.181,1.181 -2.757,1.575 -4.726,1.575 -1.969,0 -3.545,-0.394 -4.726,-1.575 -1.182,-1.182 -1.969,-2.757 -1.969,-4.726 0,-1.969 0.394,-3.545 1.575,-4.726 z m 10.634,34.657 c -1.575,1.575 -3.151,2.363 -5.514,2.363 -2.363,0 -4.332,-0.788 -5.514,-2.363 -1.575,-1.575 -2.363,-3.938 -2.363,-6.695 0,-1.969 0.788,-3.938 1.969,-5.514 1.182,-1.575 3.151,-2.757 5.908,-2.757 2.363,0 4.332,0.788 5.514,2.363 1.575,1.575 2.363,3.545 2.363,5.908 0,3.151 -0.787,5.121 -2.363,6.695 z m 66.08,-19.297 c 2.363,-1.182 4.332,-2.363 5.514,-4.332 1.182,-1.969 1.969,-4.332 1.969,-6.695 0,-3.938 -1.575,-7.483 -4.332,-9.846 -2.757,-2.757 -7.089,-3.938 -12.209,-3.938 -5.514,0 -9.452,1.182 -12.603,3.938 -2.757,2.757 -4.332,5.908 -4.332,9.846 0,2.363 0.788,4.332 1.969,6.302 1.181,1.97 3.151,3.545 5.908,4.726 -3.151,1.182 -5.514,3.151 -7.089,5.514 -1.575,2.363 -2.363,5.12 -2.363,7.877 0,5.12 1.969,9.452 5.908,12.603 3.545,2.757 7.483,3.938 12.603,3.938 5.514,0 9.846,-1.575 12.997,-4.726 3.151,-3.151 5.12,-7.089 5.12,-12.209 0,-3.151 -0.788,-5.514 -2.363,-7.877 -1.183,-2.364 -3.546,-3.94 -6.697,-5.121 z m -14.178,-15.36 c 1.182,-1.182 2.757,-1.575 5.12,-1.575 1.969,0 3.545,0.394 4.726,1.575 1.182,1.182 1.969,2.757 1.969,4.726 0,1.969 -0.788,3.545 -1.969,4.726 -1.181,1.181 -2.757,1.575 -4.726,1.575 -1.969,0 -3.545,-0.394 -4.726,-1.575 -1.182,-1.182 -1.969,-2.757 -1.969,-4.726 0,-1.969 0.393,-3.545 1.575,-4.726 z m 10.634,34.657 c -1.575,1.575 -3.151,2.363 -5.514,2.363 -2.363,0 -4.332,-0.788 -5.514,-2.363 -1.575,-1.575 -2.363,-3.938 -2.363,-6.695 0,-1.969 0.788,-3.938 1.969,-5.514 1.182,-1.575 3.151,-2.757 5.908,-2.757 2.363,0 4.332,0.788 5.514,2.363 1.575,1.575 2.363,3.545 2.363,5.908 0,3.151 -0.788,5.121 -2.363,6.695 z M 419.84,87.041 c -3.545,-4.332 -8.271,-6.302 -13.785,-6.302 -5.12,0 -9.452,1.575 -12.997,5.12 -3.545,3.545 -5.12,7.877 -5.12,13.391 0,5.12 1.575,9.452 4.726,12.603 3.151,3.151 7.089,4.726 11.422,4.726 3.938,0 7.483,-1.575 10.24,-4.332 -0.394,6.302 -1.575,10.24 -3.151,12.209 -1.575,1.969 -3.545,2.757 -5.514,2.757 -1.575,0 -3.151,-0.394 -4.332,-1.575 -1.182,-0.788 -1.575,-2.363 -1.969,-4.332 l -10.24,1.182 c 0.788,4.332 2.363,7.877 5.12,10.24 2.757,2.363 6.302,3.545 10.634,3.545 5.908,0 11.028,-2.363 14.966,-6.695 3.938,-4.332 5.514,-11.422 5.514,-21.268 0,-9.846 -1.969,-16.937 -5.514,-21.269 z m -8.665,19.692 c -1.575,1.575 -3.151,2.363 -5.12,2.363 -1.969,0 -3.938,-0.788 -5.514,-2.363 -1.575,-1.575 -1.969,-4.332 -1.969,-7.483 0,-3.545 0.788,-5.908 1.969,-7.483 1.181,-1.575 3.151,-2.363 5.12,-2.363 1.969,0 3.938,0.788 5.514,2.757 1.575,1.969 2.363,4.332 2.363,7.877 -0.393,2.757 -0.787,5.12 -2.363,6.695 z"
   id="path2980"
   inkscape:connector-curvature="0"
   sodipodi:nodetypes="csscscsscsscsssccssssssssscscscscsccsscscsscsscssscccsssssssccscscscscssssssccscccssssscscsssccc" />
<path
   style="fill:#E2574C;"
   d="M149.662,198.893h-78.77c-8.665,0-15.754,7.089-15.754,15.754v78.769  c0,8.665,7.089,15.754,15.754,15.754h78.769c8.665,0,15.754-7.089,15.754-15.754v-78.769  C165.415,205.982,158.326,198.893,149.662,198.893z M283.569,198.893H204.8c-8.665,0-15.754,7.089-15.754,15.754v78.769  c0,8.665,7.089,15.754,15.754,15.754h78.769c8.665,0,15.754-7.089,15.754-15.754v-78.769  C299.323,205.982,292.234,198.893,283.569,198.893z M283.569,332.8H204.8c-8.665,0-15.754,7.089-15.754,15.754v78.769  c0,8.665,7.089,15.754,15.754,15.754h78.769c8.665,0,15.754-7.089,15.754-15.754v-78.769  C299.323,339.889,292.234,332.8,283.569,332.8z M149.662,332.8h-78.77c-8.665,0-15.754,7.089-15.754,15.754v78.769  c0,8.665,7.089,15.754,15.754,15.754h78.769c8.665,0,15.754-7.089,15.754-15.754v-78.769  C165.415,339.889,158.326,332.8,149.662,332.8z"
   id="path2982" />
<path
   style="fill:#FFFFFF;"
   d="M86.646,391.878h47.262v-15.754H86.646V391.878z M236.308,364.309c0,4.332,3.545,7.877,7.877,7.877  s7.877-3.545,7.877-7.877s-3.545-7.877-7.877-7.877S236.308,359.975,236.308,364.309z M220.554,380.063v15.754h47.262v-15.754  H220.554z M244.185,403.692c-4.332,0-7.877,3.545-7.877,7.877s3.545,7.877,7.877,7.877s7.877-3.545,7.877-7.877  S248.517,403.692,244.185,403.692z M118.154,230.4H102.4v15.754H86.646v15.754H102.4v15.754h15.754v-15.754h15.754v-15.754h-15.754  C118.154,246.154,118.154,230.4,118.154,230.4z M233.157,276.48l11.028-11.028l11.028,11.028l11.028-11.028l-11.028-11.028  l11.028-11.028l-11.028-11.028l-11.028,10.634l-11.028-11.028l-11.028,11.028l11.028,11.028l-11.028,11.028  C222.129,265.059,233.157,276.48,233.157,276.48z"
   id="path2984" />
<path
   style="fill:#84c225;fill-opacity:1"
   d="M338.708,198.893h94.523c8.665,0,15.754,7.089,15.754,15.754v212.677  c0,8.665-7.089,15.754-15.754,15.754h-94.523c-8.665,0-15.754-7.089-15.754-15.754V214.646  C322.954,205.982,330.043,198.893,338.708,198.893z"
   id="path2986" />
<path
   style="fill:#FFFFFF;"
   d="M362.338,301.292v15.754H409.6v-15.754H362.338z M362.338,344.615H409.6v-15.754h-47.262V344.615z"
   id="path2988" />
<path
   style="fill:#DCDCDC;"
   d="M480.492,490.339H23.631C10.634,490.339,0,479.705,0,466.708v11.815  c0,12.997,10.634,23.631,23.631,23.631h456.862c12.997,0,23.631-10.634,23.631-23.631v-11.815  C504.123,479.705,493.489,490.339,480.492,490.339z"
   id="path2990" />
<path
   style="fill:#2E4754;"
   d="M55.138,57.109h393.846v15.754H55.138V57.109z"
   id="path2992" />
<g
   id="g2994">
</g>
<g
   id="g2996">
</g>
<g
   id="g2998">
</g>
<g
   id="g3000">
</g>
<g
   id="g3002">
</g>
<g
   id="g3004">
</g>
<g
   id="g3006">
</g>
<g
   id="g3008">
</g>
<g
   id="g3010">
</g>
<g
   id="g3012">
</g>
<g
   id="g3014">
</g>
<g
   id="g3016">
</g>
<g
   id="g3018">
</g>
<g
   id="g3020">
</g>
<g
   id="g3022">
</g>
<path
   inkscape:connector-curvature="0"
   style="fill:#aeb5ba;fill-opacity:1"
   d="m 324.20888,132.74229 c 0,4.332 3.545,7.877 7.877,7.877 4.332,0 7.877,-3.545 7.877,-7.877 0,-4.332 -3.545,-7.877 -7.877,-7.877 -4.332,0 -7.877,3.543 -7.877,7.877 z"
   id="path2984-5"
   sodipodi:nodetypes="sssss" /></svg>