<?xml version="1.0" encoding="UTF-8" standalone="no"?>
<!-- Generator: Adobe Illustrator 19.0.0, SVG Export Plug-In . SVG Version: 6.00 Build 0)  -->

<svg
   xmlns:dc="http://purl.org/dc/elements/1.1/"
   xmlns:cc="http://creativecommons.org/ns#"
   xmlns:rdf="http://www.w3.org/1999/02/22-rdf-syntax-ns#"
   xmlns:svg="http://www.w3.org/2000/svg"
   xmlns="http://www.w3.org/2000/svg"
   xmlns:sodipodi="http://sodipodi.sourceforge.net/DTD/sodipodi-0.dtd"
   xmlns:inkscape="http://www.inkscape.org/namespaces/inkscape"
   version="1.1"
   id="Layer_1"
   x="0px"
   y="0px"
   viewBox="0 0 504.124 504.124"
   style="enable-background:new 0 0 504.124 504.124;"
   xml:space="preserve"
   sodipodi:docname="predlozhenie.svg"
   inkscape:version="0.92.3 (2405546, 2018-03-11)"><metadata
   id="metadata2368"><rdf:RDF><cc:Work
       rdf:about=""><dc:format>image/svg+xml</dc:format><dc:type
         rdf:resource="http://purl.org/dc/dcmitype/StillImage" /></cc:Work></rdf:RDF></metadata><defs
   id="defs2366" /><sodipodi:namedview
   pagecolor="#ffffff"
   bordercolor="#666666"
   borderopacity="1"
   objecttolerance="10"
   gridtolerance="10"
   guidetolerance="10"
   inkscape:pageopacity="0"
   inkscape:pageshadow="2"
   inkscape:window-width="1920"
   inkscape:window-height="977"
   id="namedview2364"
   showgrid="false"
   inkscape:zoom="0.4681388"
   inkscape:cx="252.062"
   inkscape:cy="252.062"
   inkscape:window-x="-4"
   inkscape:window-y="-4"
   inkscape:window-maximized="1"
   inkscape:current-layer="Layer_1" />
<path
   style="fill:#84c225;fill-opacity:1"
   d="M63.016,31.508h378.092c17.329,0,31.508,14.178,31.508,31.508v409.6  c0,17.329-14.178,31.508-31.508,31.508H63.016c-17.329,0-31.508-14.178-31.508-31.508v-409.6  C31.509,45.686,45.687,31.508,63.016,31.508z"
   id="path2317" />
<path
   style="fill:#099a25;fill-opacity:1"
   d="M441.109,31.508H63.016c-17.329,0-31.508,14.178-31.508,31.508v19.692  c0-17.329,14.178-31.508,31.508-31.508h378.092c17.329,0,31.508,14.178,31.508,31.508V63.015  C472.616,45.686,458.438,31.508,441.109,31.508z"
   id="path2319" />
<path
   style="fill:#ffeeaa"
   d="M102.401,86.646h299.323c8.665,0,15.754,7.089,15.754,15.754v330.831  c0,8.665-7.089,15.754-15.754,15.754H102.401c-8.665,0-15.754-7.089-15.754-15.754V102.4  C86.647,93.735,93.736,86.646,102.401,86.646z"
   id="path2321" />
<path
   style="fill:#CCD0D2;"
   d="M133.909,63.015h236.308c4.332,0,7.877,3.545,7.877,7.877V102.4  c0,12.997-10.634,23.631-23.631,23.631h-204.8c-12.997,0-23.631-10.634-23.631-23.631V70.892  C126.032,66.56,129.576,63.015,133.909,63.015z"
   id="path2323" />
<path
   style="fill:#84c225;fill-opacity:1"
   d="M185.109,200.862h173.292c4.332,0,7.877-3.545,7.877-7.877s-3.545-7.877-7.877-7.877H185.109  c-4.332,0-7.877,3.545-7.877,7.877S180.776,200.862,185.109,200.862z M358.401,224.492H185.109c-4.332,0-7.877,3.545-7.877,7.877  s3.545,7.877,7.877,7.877h173.292c4.332,0,7.877-3.545,7.877-7.877S362.733,224.492,358.401,224.492z M358.401,263.877H185.109  c-4.332,0-7.877,3.545-7.877,7.877s3.545,7.877,7.877,7.877h173.292c4.332,0,7.877-3.545,7.877-7.877  S362.733,263.877,358.401,263.877z M153.601,185.108h-7.877c-4.332,0-7.877,3.545-7.877,7.877s3.545,7.877,7.877,7.877h7.877  c4.332,0,7.877-3.545,7.877-7.877C161.478,188.652,157.933,185.108,153.601,185.108z M153.601,224.492h-7.877  c-4.332,0-7.877,3.545-7.877,7.877s3.545,7.877,7.877,7.877h7.877c4.332,0,7.877-3.545,7.877-7.877S157.933,224.492,153.601,224.492  z M153.601,263.877h-7.877c-4.332,0-7.877,3.545-7.877,7.877s3.545,7.877,7.877,7.877h7.877c4.332,0,7.877-3.545,7.877-7.877  S157.933,263.877,153.601,263.877z M358.401,303.262H185.109c-4.332,0-7.877,3.545-7.877,7.877s3.545,7.877,7.877,7.877h173.292  c4.332,0,7.877-3.545,7.877-7.877S362.733,303.262,358.401,303.262z M358.401,342.646H185.109c-4.332,0-7.877,3.545-7.877,7.877  s3.545,7.877,7.877,7.877h173.292c4.332,0,7.877-3.545,7.877-7.877S362.733,342.646,358.401,342.646z M153.601,303.262h-7.877  c-4.332,0-7.877,3.545-7.877,7.877s3.545,7.877,7.877,7.877h7.877c4.332,0,7.877-3.545,7.877-7.877S157.933,303.262,153.601,303.262  z M153.601,342.646h-7.877c-4.332,0-7.877,3.545-7.877,7.877s3.545,7.877,7.877,7.877h7.877c4.332,0,7.877-3.545,7.877-7.877  S157.933,342.646,153.601,342.646z"
   id="path2325" />
<path
   style="fill:#CCD0D2;"
   d="M200.863,0h102.4c12.997,0,23.631,10.634,23.631,23.631v39.385H177.232V23.631  C177.232,10.634,187.866,0,200.863,0z"
   id="path2327" />
<path
   style="fill:#BCC0C2;"
   d="M126.032,70.892v15.754h252.062V70.892c0-4.332-3.545-7.877-7.877-7.877H133.909  C129.576,63.015,126.032,66.56,126.032,70.892z"
   id="path2329" />
<path
   style="fill:#AEB1B3;"
   d="M177.232,47.262h149.662v15.754H177.232V47.262z"
   id="path2331" />
<g
   id="g2333">
</g>
<g
   id="g2335">
</g>
<g
   id="g2337">
</g>
<g
   id="g2339">
</g>
<g
   id="g2341">
</g>
<g
   id="g2343">
</g>
<g
   id="g2345">
</g>
<g
   id="g2347">
</g>
<g
   id="g2349">
</g>
<g
   id="g2351">
</g>
<g
   id="g2353">
</g>
<g
   id="g2355">
</g>
<g
   id="g2357">
</g>
<g
   id="g2359">
</g>
<g
   id="g2361">
</g>
</svg>