<?xml version="1.0" encoding="UTF-8" standalone="no"?>
<!-- Generator: Adobe Illustrator 19.0.0, SVG Export Plug-In . SVG Version: 6.00 Build 0)  -->

<svg
   xmlns:dc="http://purl.org/dc/elements/1.1/"
   xmlns:cc="http://creativecommons.org/ns#"
   xmlns:rdf="http://www.w3.org/1999/02/22-rdf-syntax-ns#"
   xmlns:svg="http://www.w3.org/2000/svg"
   xmlns="http://www.w3.org/2000/svg"
   xmlns:sodipodi="http://sodipodi.sourceforge.net/DTD/sodipodi-0.dtd"
   xmlns:inkscape="http://www.inkscape.org/namespaces/inkscape"
   version="1.1"
   id="Layer_1"
   x="0px"
   y="0px"
   viewBox="0 0 504.123 504.123"
   style="enable-background:new 0 0 504.123 504.123;"
   xml:space="preserve"
   sodipodi:docname="talk.svg"
   inkscape:version="0.92.3 (2405546, 2018-03-11)"><metadata
   id="metadata3150"><rdf:RDF><cc:Work
       rdf:about=""><dc:format>image/svg+xml</dc:format><dc:type
         rdf:resource="http://purl.org/dc/dcmitype/StillImage" /></cc:Work></rdf:RDF></metadata><defs
   id="defs3148" /><sodipodi:namedview
   pagecolor="#ffffff"
   bordercolor="#666666"
   borderopacity="1"
   objecttolerance="10"
   gridtolerance="10"
   guidetolerance="10"
   inkscape:pageopacity="0"
   inkscape:pageshadow="2"
   inkscape:window-width="1920"
   inkscape:window-height="977"
   id="namedview3146"
   showgrid="false"
   inkscape:zoom="1.6067508"
   inkscape:cx="252.06149"
   inkscape:cy="252.06149"
   inkscape:window-x="-4"
   inkscape:window-y="-4"
   inkscape:window-maximized="1"
   inkscape:current-layer="Layer_1" />
<path
   style="fill:#26a6d1;fill-opacity:1"
   d="M232.369,313.888c0-52.775-51.988-95.311-116.185-95.311S0,261.112,0,313.888  s51.988,93.735,116.185,93.735c5.514,0,11.028-0.394,16.542-1.182c24.025,18.905,48.443,25.206,48.837,24.812  c-8.665-8.665-13.785-20.086-16.935-30.72C204.8,385.174,232.369,352.485,232.369,313.888z"
   id="path3103" />
<path
   style="fill:#FAEECF;"
   d="M137.846,297.346c-8.665,0-15.754,7.089-15.754,15.754s7.089,15.754,15.754,15.754  S153.6,321.765,153.6,313.1C153.6,304.435,146.511,297.346,137.846,297.346z M86.646,297.346c-8.665,0-15.754,7.089-15.754,15.754  s7.089,15.754,15.754,15.754S102.4,321.765,102.4,313.1S95.311,297.346,86.646,297.346z"
   id="path3105" />
<path
   style="fill:#84c225;fill-opacity:1"
   d="M334.769,348.94c-8.665,0-17.329-0.394-25.6-1.575c-33.871,25.206-66.954,33.477-67.348,32.689  c11.422-11.815,18.905-26.782,23.631-41.748c-59.077-21.662-100.037-70.105-100.037-126.425c0-76.8,76.012-139.028,169.354-139.028  s169.354,62.228,169.354,139.028S428.111,348.94,334.769,348.94z"
   id="path3107" />
<path
   style="fill:#FFFFFF;"
   d="M334.769,187.069c-12.997,0-23.631,10.634-23.631,23.631s10.634,23.631,23.631,23.631  S358.4,223.697,358.4,210.7S347.766,187.069,334.769,187.069z M405.662,187.069c-12.997,0-23.631,10.634-23.631,23.631  s10.634,23.631,23.631,23.631s23.631-10.634,23.631-23.631S418.658,187.069,405.662,187.069z M263.877,187.069  c-12.997,0-23.631,10.634-23.631,23.631s10.634,23.631,23.631,23.631c12.997,0,23.631-10.634,23.631-23.631  S276.874,187.069,263.877,187.069z"
   id="path3109" />
<path
   style="fill:#1d9325;fill-opacity:1"
   d="M280.812,330.429c-58.683-21.662-99.643-70.105-99.643-126.425  c0-47.655,29.145-89.403,73.649-114.609c-53.169,23.237-89.403,69.317-89.403,122.486c0,56.32,40.96,104.763,99.643,126.425  c-4.726,14.572-11.815,29.538-23.631,41.748C241.822,380.448,267.028,361.937,280.812,330.429z"
   id="path3111" />
<path
   style="fill:#2295bc;fill-opacity:1"
   d="M15.754,313.888c0-50.412,47.655-91.766,108.308-94.917l-7.877-0.394  C51.988,218.577,0,261.112,0,313.888s51.988,93.735,116.185,93.735c2.363,0,4.726,0,7.483-0.394  C63.409,403.685,15.754,364.3,15.754,313.888z"
   id="path3113" />
<g
   id="g3115">
</g>
<g
   id="g3117">
</g>
<g
   id="g3119">
</g>
<g
   id="g3121">
</g>
<g
   id="g3123">
</g>
<g
   id="g3125">
</g>
<g
   id="g3127">
</g>
<g
   id="g3129">
</g>
<g
   id="g3131">
</g>
<g
   id="g3133">
</g>
<g
   id="g3135">
</g>
<g
   id="g3137">
</g>
<g
   id="g3139">
</g>
<g
   id="g3141">
</g>
<g
   id="g3143">
</g>
</svg>